HIERARCHY
ROOT Hips
{
	OFFSET 12.549683 106.216415 -3.467426
	CHANNELS 6 Xposition Yposition Zposition Xrotation Yrotation Zrotation
	JOINT Chest
	{
		OFFSET -1.388010 13.555107 0.697663
		CHANNELS 3 Xrotation Yrotation Zrotation
		JOINT Chest2
		{
			OFFSET -2.801528 21.167885 1.771576
			CHANNELS 3 Xrotation Yrotation Zrotation
			JOINT Chest3
			{
				OFFSET 1.843400 14.802246 -0.561664
				CHANNELS 3 Xrotation Yrotation Zrotation
				JOINT Neck
				{
					OFFSET 0.335738 17.261871 0.728615
					CHANNELS 3 Xrotation Yrotation Zrotation
					JOINT Head
					{
						OFFSET -2.296301 10.058014 1.841513
						CHANNELS 3 Xrotation Yrotation Zrotation
						End Site
						{
							OFFSET -2.259576 10.077148 1.781273
						}
					}
				}
				JOINT LeftCollar
				{
					OFFSET 3.347530 13.012711 4.611710
					CHANNELS 3 Xrotation Yrotation Zrotation
					JOINT LeftUpArm
					{
						OFFSET 17.136520 2.863022 -2.577255
						CHANNELS 3 Xrotation Yrotation Zrotation
						JOINT LeftLowArm
						{
							OFFSET 28.614010 12.594467 12.741488
							CHANNELS 3 Xrotation Yrotation Zrotation
							JOINT LeftHand
							{
								OFFSET 25.961372 8.979156 12.096625
								CHANNELS 3 Xrotation Yrotation Zrotation
								End Site
								{
									OFFSET 5.674011 1.962463 2.643787
								}
							}
						}
					}
				}
				JOINT RightCollar
				{
					OFFSET -4.642243 13.279388 1.978942
					CHANNELS 3 Xrotation Yrotation Zrotation
					JOINT RightUpArm
					{
						OFFSET -12.764421 5.477966 -10.749771
						CHANNELS 3 Xrotation Yrotation Zrotation
						JOINT RightLowArm
						{
							OFFSET -29.444490 16.004227 4.076821
							CHANNELS 3 Xrotation Yrotation Zrotation
							JOINT RightHand
							{
								OFFSET -25.469219 14.551437 6.366202
								CHANNELS 3 Xrotation Yrotation Zrotation
								End Site
								{
									OFFSET -5.566566 3.180344 1.391397
								}
							}
						}
					}
				}
			}
		}
	}
	JOINT LeftUpLeg
	{
		OFFSET 7.349037 0.402290 6.800659
		CHANNELS 3 Xrotation Yrotation Zrotation
		JOINT LeftLowLeg
		{
			OFFSET -13.406452 -43.811310 12.034372
			CHANNELS 3 Xrotation Yrotation Zrotation
			JOINT LeftFoot
			{
				OFFSET -2.717013 -44.394455 -4.724294
				CHANNELS 3 Xrotation Yrotation Zrotation
				JOINT LeftToe
				{
					OFFSET -8.484858 -17.655699 13.260585
					CHANNELS 3 Xrotation Yrotation Zrotation
					End Site
					{
						OFFSET -8.249498 -4.175032 21.773235
					}
				}
			}
		}
	}
	JOINT RightUpLeg
	{
		OFFSET -7.349020 -0.402489 -6.800671
		CHANNELS 3 Xrotation Yrotation Zrotation
		JOINT RightLowLeg
		{
			OFFSET 6.909454 -46.027771 -8.815666
			CHANNELS 3 Xrotation Yrotation Zrotation
			JOINT RightFoot
			{
				OFFSET 7.972626 -43.030510 -9.240797
				CHANNELS 3 Xrotation Yrotation Zrotation
				JOINT RightToe
				{
					OFFSET -18.983433 -13.852936 2.698526
					CHANNELS 3 Xrotation Yrotation Zrotation
					End Site
					{
						OFFSET -22.177935 0.771403 8.191477
					}
				}
			}
		}
	}
}
MOTION
Frames: 8
Frame Time: 0.033333
-2.960882 105.908752 -1.111722 3.491007 40.825082 -4.345911 -3.195050 -1.057524 1.515692 -2.250112 -3.137848 6.208688 3.804915 -15.433075 -2.828197 -7.442637 8.916941 -9.403351 0.000002 0.000000 -0.000002 15.578299 -4.004375 -32.496230 25.326294 -17.331900 -59.605381 20.274383 -11.669199 17.592144 -0.000003 -0.000001 -0.000000 -6.218321 -10.549117 43.704540 9.411297 -9.025126 65.038018 22.717054 7.921288 -0.877324 0.000000 -0.000001 0.000000 13.332554 5.441364 23.707624 -9.708450 8.943083 -6.732765 -24.023184 -22.872145 -15.392048 0.000000 -0.000000 -0.000002 -8.300241 0.958933 -5.291079 7.556130 -3.722998 7.033356 -8.449911 16.068618 18.164475 -0.000000 0.000000 -0.000001 
-2.966646 105.915833 -1.122107 3.539895 41.248598 -4.393225 -3.278296 -1.071123 1.597385 -1.400963 -3.124610 6.805440 3.039079 -15.532849 -3.318529 -7.740244 8.790004 -9.483742 0.000001 0.000002 -0.000000 15.543426 -3.913420 -32.679218 25.192929 -17.315180 -59.560062 20.221426 -11.815849 17.526778 -0.000002 -0.000001 -0.000002 -6.270281 -10.372343 43.789453 9.293246 -9.052646 64.848125 22.703282 8.209993 -1.013737 -0.000004 -0.000000 0.000000 13.065786 5.410510 23.580924 -9.414185 8.782469 -6.292633 -24.268606 -23.174530 -15.711259 -0.000001 -0.000002 -0.000001 -8.186399 0.910078 -5.160244 7.301065 -3.829419 6.894053 -8.196129 16.059904 17.977987 0.000000 0.000002 0.000000 
-2.967994 105.919563 -1.122831 3.453699 40.803994 -4.226587 -3.118681 -1.052046 1.560224 -1.262401 -3.024342 6.732468 2.769852 -15.144005 -3.274479 -7.647367 8.893646 -9.593007 0.000001 0.000000 -0.000000 15.559123 -3.759111 -32.688493 25.158469 -17.216918 -59.675055 20.067663 -11.659956 17.237605 0.000001 -0.000001 -0.000002 -6.203853 -10.057333 43.740931 9.286925 -9.144299 64.957572 22.485831 8.040469 -0.983064 -0.000003 0.000002 0.000004 13.043469 5.363074 23.346188 -9.253741 8.687960 -6.133317 -24.334530 -22.945561 -15.582078 -0.000002 0.000001 -0.000001 -8.361848 0.955283 -5.459463 7.771066 -3.735206 7.193365 -8.376142 16.340784 18.405854 -0.000002 0.000002 -0.000002 
-2.977705 105.921143 -1.116494 3.608601 40.695568 -4.268769 -3.437792 -1.055286 1.323747 -0.407525 -2.997018 7.369402 2.203293 -14.827577 -3.597808 -7.855015 8.834703 -9.527172 0.000001 0.000000 -0.000000 15.618718 -4.310884 -32.449242 25.066255 -17.754259 -59.690205 19.748993 -11.302338 17.269326 0.000001 -0.000003 -0.000001 -6.191506 -9.963456 43.791594 9.261542 -8.842908 64.824130 22.665124 8.357272 -1.206620 -0.000002 0.000001 0.000002 12.980035 5.374980 23.405730 -9.153945 8.654648 -6.053267 -24.265383 -22.992210 -15.571954 -0.000000 0.000000 -0.000005 -8.490392 0.948265 -5.519405 7.942789 -3.710689 7.315314 -8.706037 16.439575 18.697781 -0.000001 0.000004 -0.000000 
-2.993492 105.922417 -1.114787 3.706012 40.707009 -4.346712 -3.322403 -1.046389 1.443815 -1.157939 -3.056599 6.857780 2.860321 -14.857091 -3.250923 -8.260885 8.771733 -9.645389 0.000001 0.000000 0.000001 15.608273 -4.345198 -32.662706 24.967738 -17.851008 -59.568573 19.600430 -11.226907 17.149072 -0.000001 -0.000003 -0.000002 -6.357359 -10.449801 43.891359 9.221747 -8.918118 64.514306 22.573731 8.302547 -0.559534 -0.000004 -0.000000 0.000000 12.726061 5.316084 23.373983 -9.016027 8.517335 -6.065578 -24.764161 -22.699910 -15.606711 0.000001 0.000001 -0.000002 -8.373853 0.934416 -5.331200 7.699215 -3.696201 7.293326 -8.527959 16.233615 18.329989 0.000000 0.000000 -0.000000 
-3.003531 105.932632 -1.121810 3.588253 40.624527 -4.338097 -3.167361 -1.037026 1.606963 -0.873802 -3.070670 7.097065 2.337534 -14.829495 -3.594414 -8.232768 8.791227 -9.673479 0.000001 0.000002 0.000000 15.524731 -4.423752 -32.804972 24.931058 -17.471267 -59.728481 19.431818 -11.278000 16.916637 0.000002 -0.000003 -0.000001 -6.442491 -10.252930 43.926675 9.081925 -8.917433 64.416703 22.349615 8.310067 -0.413068 0.000002 -0.000000 0.000000 12.700519 5.253023 23.368095 -8.942427 8.432266 -6.073349 -24.583553 -22.573780 -15.482777 0.000001 -0.000000 -0.000001 -8.194385 0.971828 -5.224772 7.538552 -3.621413 7.226179 -8.240119 16.132861 18.201856 0.000000 0.000006 -0.000002 
-3.017129 105.940125 -1.124612 3.694493 40.272906 -4.356459 -3.257212 -1.021297 1.483350 -0.450508 -3.054744 7.368449 1.947988 -14.888443 -3.723823 -7.821623 8.813797 -9.690557 0.000003 0.000000 -0.000001 15.407539 -4.509427 -32.746239 24.794273 -17.535298 -59.962108 19.355745 -11.481289 16.907766 -0.000000 0.000000 -0.000002 -6.434922 -9.492254 44.001790 8.940829 -8.891518 64.339904 22.084435 8.148780 -0.223330 -0.000004 -0.000001 0.000000 12.754577 5.264980 23.426113 -8.998876 8.540960 -6.246687 -24.912208 -22.225654 -15.368701 0.000000 0.000000 -0.000004 -8.180845 0.974008 -5.220193 7.482825 -3.697358 7.177119 -8.988229 16.299022 18.724419 -0.000001 0.000006 -0.000000 
-3.030577 105.945114 -1.127383 3.762104 40.411613 -4.396767 -3.296120 -1.028294 1.515273 -1.056311 -3.101434 6.986380 2.486434 -15.102004 -3.458082 -8.142660 8.857235 -9.707418 0.000001 0.000000 -0.000000 15.306715 -4.101089 -32.614488 24.671750 -17.918025 -60.020540 19.499135 -11.614762 16.420591 -0.000001 0.000002 0.000000 -6.464348 -9.892654 43.770386 8.894446 -8.830169 64.399525 21.822627 7.898635 0.291804 -0.000001 -0.000000 -0.000002 12.836999 5.323422 23.510833 -9.286033 8.664704 -6.532417 -24.702170 -22.231631 -15.252181 -0.000000 -0.000000 -0.000001 -8.189421 0.935349 -5.150485 7.335023 -3.728040 6.950608 -8.849780 16.375741 18.789552 -0.000001 0.000002 -0.000000 
